<svg xmlns="http://www.w3.org/2000/svg" width="14" height="14" fill="none"><path d="M7 1.26c-1.867 0-2.092 0-2.831.047-.442.006-.879.09-1.291.249a2.18 2.18 0 00-.778.528c-.23.218-.407.484-.521.778a3.889 3.889 0 00-.241 1.3v5.654c-.002.444.072.886.218 1.306.113.295.291.56.52.778.218.23.484.411.778.529.415.15.851.228 1.292.233.777.04.964.047 2.83.047 1.867 0 2.093 0 2.832-.047.443-.002.883-.08 1.299-.233a2.334 2.334 0 001.337-1.307c.154-.416.236-.855.242-1.299 0-.777.038-.956.038-2.83 0-1.875 0-2.085-.038-2.824a3.938 3.938 0 00-.242-1.299 2.333 2.333 0 00-1.314-1.314 3.99 3.99 0 00-1.299-.234C9.092 1.268 8.867 1.26 7 1.26zM7 0c1.906 0 2.139 0 2.886.047a5.138 5.138 0 011.703.319 3.609 3.609 0 012.045 2.045 5.18 5.18 0 01.32 1.703c0 .778.046.98.046 2.886 0 1.906 0 2.139-.047 2.886a5.138 5.138 0 01-.319 1.703 3.609 3.609 0 01-2.045 2.045 5.138 5.138 0 01-1.703.32c-.778 0-.98.046-2.886.046-1.906 0-2.139 0-2.886-.047a5.18 5.18 0 01-1.703-.319A3.609 3.609 0 01.366 11.59a5.141 5.141 0 01-.32-1.703C0 9.139 0 8.906 0 7c0-1.906 0-2.139.047-2.886a5.063 5.063 0 01.319-1.695c.165-.467.43-.891.777-1.245.352-.344.774-.61 1.237-.777a5.39 5.39 0 011.703-.32C4.861 0 5.094 0 7 0zm0 3.407a3.593 3.593 0 110 7.186 3.593 3.593 0 010-7.186zm0 5.926a2.333 2.333 0 100-4.666 2.333 2.333 0 000 4.666zm4.581-6.074a.84.84 0 11-1.68 0 .84.84 0 011.68 0z" fill="#fff"/></svg>