<svg width="14" height="12" fill="none" xmlns="http://www.w3.org/2000/svg"><path d="M12.575 3.415c0-.131-.003-.261-.009-.39A5.903 5.903 0 0014 1.484a5.514 5.514 0 01-1.65.451 2.948 2.948 0 001.264-1.65A5.521 5.521 0 0111.79.99 2.858 2.858 0 009.693 0C8.107-.027 6.821 1.314 6.821 2.993c0 .239.025.47.074.694C4.507 3.533 2.39 2.29.974.415a3.18 3.18 0 00-.389 1.537c0 1.064.507 2.01 1.278 2.567a2.747 2.747 0 01-1.301-.398v.039c0 1.487.99 2.732 2.304 3.023a2.713 2.713 0 01-1.296.044c.365 1.218 1.426 2.108 2.683 2.138A5.546 5.546 0 010 10.62 7.749 7.749 0 004.404 12c5.282.002 8.17-4.596 8.17-8.585z" fill="#fff"/></svg>