<svg width="224" height="40" fill="none" xmlns="http://www.w3.org/2000/svg"><path fill-rule="evenodd" clip-rule="evenodd" d="M9.423 6.55h-.006l.006-.016v.016zm0 3.991v-3.99h1.202v4.53a5.808 5.808 0 01-1.97 1.119 7.29 7.29 0 01-2.394.39c-1.185 0-2.26-.262-3.205-.78A5.746 5.746 0 01.813 9.645C.267 8.721 0 7.691 0 6.545c0-1.147.273-2.176.813-3.1A5.785 5.785 0 013.056 1.28C4.007.762 5.082.5 6.278.5c.907 0 1.737.145 2.494.435a5.038 5.038 0 011.92 1.28l-.78.796c-.94-.93-2.131-1.392-3.578-1.392-.963 0-1.831.212-2.605.635a4.677 4.677 0 00-1.826 1.764c-.44.751-.662 1.592-.662 2.521 0 .93.223 1.765.662 2.51a4.764 4.764 0 001.815 1.765c.768.428 1.636.646 2.6.646 1.224 0 2.259-.307 3.105-.919zm13.825 1.948v-1.091h-7.146V6.985h6.144V5.916h-6.144V1.692h6.89V.606h-8.148V12.49h8.404zm12.033-1.085v1.085h-8.404V.606h8.148v1.086h-6.89v4.224h6.145v1.069h-6.145v4.413h7.146v.006zM40.174.606h-1.258V12.49h7.909v-1.085h-6.651V.606zm12.233 7.776v4.107h-1.24V8.382L46.418.606h1.34l4.075 6.674L55.908.606h1.258l-4.753 7.776h-.006zm22.442 4.107V.606h-1.242v5.299h-7.436V.606h-1.257V12.49h1.257V7.007h7.436v5.482h1.242zm6.545-.684a5.75 5.75 0 01-2.243-2.166c-.54-.918-.807-1.948-.807-3.089 0-1.14.267-2.17.807-3.089a5.788 5.788 0 012.243-2.165c.957-.528 2.02-.79 3.2-.79 1.18 0 2.238.262 3.184.78A5.794 5.794 0 0190.01 3.45c.545.924.812 1.954.812 3.1 0 1.147-.273 2.177-.812 3.1a5.795 5.795 0 01-2.232 2.166c-.946.523-2.004.779-3.184.779-1.18 0-2.243-.262-3.2-.79zm5.744-.969a4.598 4.598 0 001.78-1.764c.43-.752.646-1.592.646-2.522 0-.929-.217-1.77-.645-2.52a4.598 4.598 0 00-1.781-1.765c-.757-.423-1.609-.635-2.544-.635s-1.792.212-2.554.635a4.641 4.641 0 00-1.798 1.764c-.434.752-.651 1.592-.651 2.521 0 .93.217 1.77.65 2.522a4.641 4.641 0 001.799 1.764c.762.423 1.613.635 2.554.635.94 0 1.787-.212 2.544-.635zM95.575.606h-1.257V12.49h7.909v-1.085h-6.652V.606zm9.418 0h4.836c1.258 0 2.366.25 3.329.757a5.534 5.534 0 012.243 2.104c.534.902.796 1.926.796 3.083 0 1.158-.268 2.182-.796 3.084a5.497 5.497 0 01-2.243 2.104c-.963.506-2.071.757-3.329.757h-4.836V.606zm4.77 10.798c1.04 0 1.953-.206 2.732-.618a4.492 4.492 0 001.815-1.714c.428-.73.645-1.57.645-2.522 0-.951-.217-1.792-.645-2.52a4.493 4.493 0 00-1.815-1.715c-.779-.412-1.692-.618-2.732-.618h-3.512v9.707h3.512zM120.95.606h-1.258V12.49h1.258V.606zm14.476 0V12.49h-1.035l-7.636-9.64v9.64h-1.258V.606h1.035l7.653 9.64V.606h1.241zM148.35 6.55h-.006l.006-.016v.016zm0 3.991v-3.99h1.202v4.53a5.8 5.8 0 01-1.97 1.119 7.287 7.287 0 01-2.393.39c-1.186 0-2.26-.262-3.206-.78a5.741 5.741 0 01-2.243-2.165c-.546-.924-.813-1.954-.813-3.1 0-1.147.273-2.176.813-3.1a5.78 5.78 0 012.243-2.165c.952-.518 2.026-.78 3.222-.78.908 0 1.737.145 2.494.435a5.038 5.038 0 011.92 1.28l-.779.796c-.941-.93-2.132-1.392-3.579-1.392-.963 0-1.831.212-2.605.635a4.675 4.675 0 00-1.825 1.764c-.44.751-.663 1.592-.663 2.521 0 .93.223 1.765.663 2.51a4.759 4.759 0 001.814 1.765c.768.428 1.636.646 2.599.646 1.225 0 2.26-.307 3.106-.919zm18.918-3.99h.006v3.99c-.846.612-1.882.918-3.106.918-.963 0-1.831-.217-2.599-.645a4.768 4.768 0 01-1.815-1.764c-.439-.746-.662-1.581-.662-2.51 0-.93.223-1.77.662-2.522a4.677 4.677 0 011.826-1.764c.774-.423 1.642-.635 2.605-.635 1.447 0 2.638.462 3.578 1.392l.78-.796a5.053 5.053 0 00-1.921-1.28c-.756-.29-1.586-.435-2.493-.435-1.197 0-2.271.262-3.223.78a5.794 5.794 0 00-2.243 2.165c-.539.924-.812 1.953-.812 3.1 0 1.146.267 2.176.812 3.1a5.755 5.755 0 002.243 2.165c.947.518 2.021.78 3.206.78a7.31 7.31 0 002.394-.39 5.81 5.81 0 001.97-1.119v-4.53h-1.202v-.017l-.006.016zm10.831 2.12l2.716 3.818h1.369l-2.899-4.074c.868-.284 1.541-.746 2.009-1.386.473-.634.707-1.42.707-2.349 0-1.269-.434-2.265-1.292-2.988-.857-.724-2.048-1.086-3.562-1.086H172.7V12.49h1.258V8.721h3.189c.329 0 .646-.017.952-.05zm2.649-3.985c0 .935-.311 1.67-.935 2.187-.623.518-1.525.78-2.699.78h-3.156V1.696h3.156c1.18 0 2.076.262 2.699.774.624.517.935 1.28.935 2.215zm6.902 7.119a5.752 5.752 0 01-2.243-2.166c-.54-.918-.807-1.948-.807-3.089 0-1.14.267-2.17.807-3.089a5.79 5.79 0 012.243-2.165c.957-.528 2.02-.79 3.2-.79 1.18 0 2.238.262 3.184.78a5.8 5.8 0 012.232 2.164c.545.924.812 1.954.812 3.1 0 1.147-.272 2.177-.812 3.1a5.8 5.8 0 01-2.232 2.166c-.946.523-2.004.779-3.184.779-1.18 0-2.243-.262-3.2-.79zm5.744-.969a4.6 4.6 0 001.781-1.764c.428-.752.646-1.592.646-2.522 0-.929-.218-1.77-.646-2.52a4.6 4.6 0 00-1.781-1.765c-.757-.423-1.609-.635-2.544-.635s-1.792.212-2.554.635a4.638 4.638 0 00-1.798 1.764c-.434.752-.651 1.592-.651 2.521 0 .93.217 1.77.651 2.522a4.638 4.638 0 001.798 1.764c.762.423 1.614.635 2.554.635.941 0 1.787-.212 2.544-.635zm7.074-10.23v6.807c0 1.687.428 2.967 1.291 3.852h.006c.862.885 2.065 1.324 3.601 1.324s2.733-.44 3.59-1.324c.851-.88 1.28-2.165 1.28-3.852V.606h-1.225v6.757c0 1.38-.311 2.41-.935 3.09-.623.678-1.536 1.018-2.716 1.018-1.18 0-2.076-.34-2.699-1.019-.624-.679-.935-1.709-.935-3.089V.606h-1.258zm22.241 1.091c.857.724 1.291 1.72 1.291 2.989s-.429 2.26-1.291 2.978c-.863.718-2.048 1.08-3.562 1.08h-3.19v3.75H214.7V.607h4.447c1.514 0 2.705.362 3.562 1.086v.005zm-.902 5.17c.623-.511.935-1.24.935-2.181 0-.94-.312-1.698-.935-2.215-.623-.512-1.519-.774-2.699-.774h-3.156v5.939h3.156c1.174 0 2.076-.256 2.699-.774v.006zM152.97 25.57v8.888h-5.672l6.941 5.043h-6.718l-12.373-8.994h13.48v-4.141h-16.931V39.5h-4.347V22.413h21.278l4.342 3.156zM26.871 34.457V25.57l-4.346-3.156H1.252V39.5h4.342V26.365h16.93v4.14H9.045L21.423 39.5h6.712l-6.94-5.043h5.677zM161.308 39.5h-5.749l15.133-17.237L185.824 39.5h-5.755l-1.959-2.17h-14.844l-1.959 2.17zm9.378-10.898l-4.519 5.137h9.039l-4.52-5.137zm-102.27-6.19V39.5h21.533l4.342-3.156V25.57l-4.342-3.156H68.415zm21.533 13.136H72.761V26.36h17.187v9.19zM39.022 39.5V22.413h21.534l4.34 3.156v10.775l-4.34 3.156H39.022zm4.346-3.952h17.188V26.36H43.368v9.19zM95.375 39.5h5.755l1.954-2.17h14.844l1.953 2.17h5.755l-15.133-17.237L95.37 39.5h.005zm10.614-5.76l4.519-5.138 4.52 5.137h-9.039zM30.818 22.412h4.397V39.5h-4.397V22.413z" fill="#000"/></svg>