<svg width="18" height="18" fill="none" xmlns="http://www.w3.org/2000/svg"><path d="M14.89 3.01A8.47 8.47 0 102.91 14.99 8.47 8.47 0 1014.89 3.01zM1.64 9c0-.643.085-1.282.253-1.902.278.597.68 1.113.955 1.726.354.788 1.306.57 1.726 1.26.372.613-.026 1.388.253 2.03.203.465.681.567 1.01.907.338.344.33.814.382 1.262a11.544 11.544 0 00.285 1.572C3.674 14.861 1.64 12.164 1.64 9zm7.26 7.26c-.405 0-.81-.034-1.21-.1.004-.103.006-.199.016-.266.092-.6.393-1.189.8-1.639.4-.444.95-.744 1.29-1.248.331-.491.43-1.153.294-1.727-.202-.85-1.355-1.132-1.977-1.593-.357-.264-.675-.673-1.144-.707-.216-.015-.398.032-.612-.023-.197-.052-.35-.157-.56-.13-.392.052-.639.47-1.06.413-.398-.053-.81-.52-.9-.9-.116-.489.27-.647.684-.69.173-.019.367-.039.533.025.218.08.322.295.518.403.368.202.442-.12.386-.447-.084-.49-.183-.689.254-1.026.302-.232.56-.4.513-.817-.03-.245-.163-.356-.038-.6.095-.185.355-.353.525-.464.438-.286 1.877-.264 1.29-1.065-.173-.234-.492-.654-.795-.712-.378-.071-.546.35-.81.537-.272.192-.802.411-1.074.113-.367-.4.243-.531.378-.811.062-.13 0-.312-.105-.482.136-.058.275-.111.416-.16a.59.59 0 00.302.113c.253.017.492-.12.713.052.245.19.421.428.746.487.315.058.648-.126.726-.448.047-.196 0-.403-.045-.605a7.216 7.216 0 013.97 1.218c-.075-.029-.166-.025-.277.026-.23.107-.555.379-.582.648-.03.305.42.348.634.348.322 0 .647-.143.544-.515-.045-.16-.107-.328-.205-.43.237.165.464.344.68.535l-.01.01c-.218.227-.47.407-.62.683a.597.597 0 01-.436.337c-.117.027-.251.038-.35.116-.273.216-.117.734.142.89.328.196.814.103 1.061-.177.194-.22.307-.6.655-.6.153 0 .3.06.41.167.143.15.115.288.145.474.054.33.346.152.523-.015.13.23.246.467.35.71-.196.28-.35.587-.82.26-.28-.197-.454-.482-.807-.57-.308-.076-.623.003-.928.056-.346.06-.756.086-1.018.348-.254.253-.389.59-.659.845-.522.491-.742 1.028-.404 1.723.325.668 1.005 1.03 1.74.983.72-.048 1.47-.466 1.449.582-.008.37.07.627.184.972.105.317.098.625.122.953.023.384.083.765.18 1.137A7.252 7.252 0 018.9 16.26z" fill="#000"/></svg>