<svg xmlns="http://www.w3.org/2000/svg" width="14" height="10" fill="none"><path d="M13.86 2.348a2.77 2.77 0 00-.56-1.314 2.069 2.069 0 00-1.4-.568C9.94.333 7 .333 7 .333s-2.94 0-4.9.133a2.092 2.092 0 00-1.408.568A2.73 2.73 0 00.14 2.348 19.024 19.024 0 000 4.495v1.003c.006.72.053 1.44.14 2.154.07.48.263.932.56 1.315.436.365.987.566 1.556.568C3.36 9.667 7 9.667 7 9.667s2.94 0 4.9-.14a2.046 2.046 0 001.4-.56 2.8 2.8 0 00.56-1.315c.087-.715.134-1.434.14-2.154V4.495a19.02 19.02 0 00-.14-2.147zM5.553 6.719V2.993l3.78 1.867-3.78 1.859z" fill="#fff"/></svg>